<?xml version="1.0" encoding="utf-8"?>
<!-- Generator: Adobe Illustrator 16.0.0, SVG Export Plug-In . SVG Version: 6.00 Build 0)  -->
<!DOCTYPE svg PUBLIC "-//W3C//DTD SVG 1.1//EN" "http://www.w3.org/Graphics/SVG/1.1/DTD/svg11.dtd">
<svg version="1.1" id="Calque_1" xmlns="http://www.w3.org/2000/svg" xmlns:xlink="http://www.w3.org/1999/xlink" x="0px" y="0px"
	 width="1800px" height="780px" viewBox="0 -300 1800 780" enable-background="new 0 -300 1800 780" xml:space="preserve">
<g>
	<path fill="#EEEEEE" d="M45-35.577h19.507c4.028,0,7.11,1.103,9.293,3.33c2.16,2.228,3.24,5.715,3.24,10.462V151.06
		c0,4.343-1.192,7.74-3.578,10.148c-2.362,2.43-5.872,3.645-10.507,3.645H45v14.423h115.965v-14.4H140.22
		c-4.117,0-7.74-1.282-10.845-3.87c-2.16-1.957-3.24-4.814-3.24-8.527v-84.51h16.897c7.11,0,13.095,1.598,17.955,4.814
		c4.86,3.218,8.798,8.123,11.835,14.738c3.037,6.637,6.48,19.529,10.305,38.744c3.285,16.448,5.873,26.865,7.74,31.32
		c3.105,7.763,7.605,13.635,13.545,17.686c5.94,4.05,13.815,6.052,23.603,6.052c13.726,0,24.367-4.14,31.883-12.487
		c7.515-8.303,11.813-22.072,12.848-41.31h-13.613c-1.35,18.09-5.399,27.135-12.217,27.135c-2.476,0-4.703-1.282-6.638-3.87
		c-1.958-2.588-4.23-8.888-6.817-18.923c-4.141-15.592-9.473-28.979-15.998-40.14c-4.927-8.482-10.643-14.895-17.077-19.192
		s-15.638-7.447-27.585-9.405c23.827-2.362,41.49-7.537,52.942-15.502c15.075-10.44,22.59-24.075,22.59-40.883
		c0-10.53-2.992-20.115-8.978-28.732c-5.984-8.617-15.098-15.435-27.314-20.452C199.777-47.502,183.915-50,164.497-50H45V-35.577z
		 M126.112-18.072c0-7.335,1.237-12.06,3.713-14.175c2.475-2.115,8.572-3.195,18.27-3.195c18.067,0,30.758,3.375,38.093,10.147
		S197.167-7.812,197.167,6.88c0,15.93-3.712,27.226-11.137,33.953c-9.923,8.774-23.423,13.162-40.568,13.162h-19.35V-18.072
		L126.112-18.072z"/>
	<path fill="#EEEEEE" d="M362.79,14.755L305.325,152.14c-2.317,5.423-5.58,9.878-9.788,13.365c-2.97,2.453-6.412,3.69-10.327,3.69
		h-3.487v10.08h60.907v-10.08h-5.107c-6.008,0-10.755-1.463-14.22-4.41c-3.466-2.925-5.221-6.728-5.221-11.452
		c0-2.768,1.192-6.953,3.601-12.601l5.715-13.545h60.007l12.353,29.745c0.878,2.093,1.306,3.96,1.306,5.535
		c0,2.024-1.035,3.667-3.15,4.882c-2.093,1.238-5.917,1.846-11.475,1.846h-7.021v10.08h75.195v-10.08h-5.85
		c-3.308,0-6.008-0.721-8.011-2.16c-2.024-1.463-3.914-4.186-5.646-8.258l-60.121-144H362.79V14.755z M382.95,116.545h-51.12
		l25.694-61.155L382.95,116.545z"/>
	<path fill="#EEEEEE" d="M487.08,38.515c-15.548,15.841-23.287,35.933-23.287,60.301c0,16.425,3.555,30.824,10.619,43.222
		c7.088,12.397,16.74,22.253,28.98,29.543c12.24,7.313,26.1,10.935,41.558,10.935c23.265,0,42.75-8.01,58.455-24.074
		c15.705-16.043,23.58-36.113,23.58-60.165c0-15.841-3.556-30.061-10.665-42.66c-7.11-12.601-17.055-22.567-29.79-29.88
		c-12.758-7.29-26.686-10.936-41.76-10.936C521.843,14.755,502.628,22.675,487.08,38.515z M568.237,32.26
		c6.593,4.748,11.521,11.925,14.851,21.601c3.307,9.652,4.972,24.098,4.972,43.335c0,27.473-3.87,46.755-11.587,57.848
		c-7.74,11.092-18.067,16.649-30.982,16.649c-8.73,0-16.402-2.385-22.973-7.155c-6.593-4.77-11.588-12.127-15.008-22.05
		c-3.442-9.944-5.152-24.569-5.152-43.853c0-18.359,1.867-32.805,5.58-43.357s8.752-18.18,15.075-22.928
		c6.322-4.725,13.792-7.087,22.388-7.087C554.04,25.173,561.668,27.535,568.237,32.26z"/>
	<path fill="#EEEEEE" d="M644.737,28.863h11.813c4.118,0,6.976,0.766,8.572,2.34c1.575,1.553,2.386,4.433,2.386,8.641v90.18
		c0,11.723,2.137,21.15,6.457,28.26c4.298,7.11,11.565,12.96,21.78,17.46c10.215,4.522,22.229,6.772,36.045,6.772
		c19.282,0,34.447-5.018,45.518-15.097c10.979-9.99,16.47-23.198,16.47-39.601v-73.89c0-7.088,1.665-13.027,4.973-17.843
		c3.308-4.814,8.168-7.223,14.513-7.223h4.229v-10.08h-61.109v10.08h2.385c6.502,0,11.7,2.16,15.57,6.525
		c3.869,4.343,5.805,10.867,5.805,19.53v68.152c0,9.563-1.643,17.46-4.928,23.76c-3.285,6.277-7.492,10.822-12.622,13.567
		c-7.021,3.69-14.806,5.535-23.4,5.535c-11.723,0-20.88-3.33-27.54-10.035c-6.638-6.683-9.967-16.29-9.967-28.822V38.29
		c0-3.195,0.63-5.558,1.957-7.088c1.305-1.552,3.105-2.34,5.423-2.34h16.38v-10.08h-80.641v10.08H644.737z"/>
	<path fill="#EEEEEE" d="M844.673,28.863c3.982,0,6.772,0.675,8.393,2.003c1.62,1.35,2.43,3.487,2.43,6.457v122.715
		c0,2.881-0.788,5.131-2.362,6.728c-1.575,1.598-3.938,2.386-7.043,2.386h-14.085v10.08H972.99l3.667-61.516h-9.742
		c-3.982,17.933-9.675,31.005-17.122,39.173c-7.448,8.189-15.458,12.263-24.053,12.263h-23.085c-5.647,0-9.202-0.653-10.732-2.003
		c-1.508-1.327-2.272-4.433-2.272-9.27V38.56c0-3.397,0.787-5.85,2.385-7.38c1.575-1.507,4.365-2.295,8.348-2.295h13.883v-10.08
		h-82.238v10.08h12.646V28.863z"/>
	<path fill="#EEEEEE" d="M1092.825-35.577h19.507c4.028,0,7.11,1.103,9.293,3.33c2.16,2.228,3.24,5.715,3.24,10.462V151.06
		c0,4.343-1.192,7.74-3.578,10.148c-2.362,2.43-5.872,3.645-10.529,3.645h-17.955v14.423h115.965v-14.4h-20.745
		c-4.117,0-7.739-1.282-10.845-3.87c-2.16-1.957-3.24-4.814-3.24-8.527v-84.51h16.875c7.11,0,13.096,1.598,17.955,4.814
		c4.86,3.218,8.798,8.123,11.835,14.738c3.037,6.637,6.48,19.529,10.306,38.744c3.307,16.448,5.872,26.865,7.739,31.32
		c3.105,7.763,7.605,13.635,13.545,17.686c5.94,4.05,13.815,6.052,23.625,6.052c13.726,0,24.368-4.14,31.883-12.487
		c7.515-8.303,11.813-22.072,12.848-41.31h-13.612c-1.351,18.09-5.4,27.135-12.218,27.135c-2.475,0-4.702-1.282-6.638-3.87
		c-1.957-2.588-4.229-8.888-6.817-18.923c-4.14-15.592-9.473-28.979-15.997-40.14c-4.928-8.482-10.643-14.895-17.078-19.192
		c-6.457-4.298-15.638-7.447-27.607-9.405c23.828-2.362,41.49-7.537,52.942-15.502c15.075-10.44,22.59-24.075,22.59-40.883
		c0-10.53-2.992-20.115-8.978-28.732c-5.984-8.617-15.098-15.435-27.314-20.452c-12.218-5.018-28.103-7.516-47.498-7.516h-119.497
		v14.423l0,0V-35.577z M1173.938-18.072c0-7.335,1.237-12.06,3.713-14.175c2.475-2.115,8.572-3.195,18.27-3.195
		c18.067,0,30.758,3.375,38.093,10.147s10.979,17.482,10.979,32.175c0,15.93-3.712,27.226-11.137,33.953
		c-9.9,8.774-23.423,13.162-40.568,13.162h-19.35V-18.072L1173.938-18.072z"/>
	<path fill="#EEEEEE" d="M1339.29,28.863h11.813c4.117,0,6.975,0.766,8.572,2.34c1.575,1.553,2.385,4.433,2.385,8.641v90.18
		c0,11.723,2.16,21.15,6.458,28.26c4.297,7.11,11.564,12.96,21.78,17.46c10.215,4.522,22.229,6.772,36.045,6.772
		c19.282,0,34.447-5.018,45.518-15.097c10.979-9.99,16.47-23.198,16.47-39.601v-73.89c0-7.088,1.665-13.027,4.973-17.843
		c3.33-4.814,8.167-7.223,14.513-7.223h4.229v-10.08h-61.109v10.08h2.385c6.502,0,11.7,2.16,15.569,6.525
		c3.87,4.343,5.783,10.867,5.783,19.53v68.152c0,9.563-1.643,17.46-4.928,23.76c-3.285,6.277-7.492,10.822-12.622,13.567
		c-7.021,3.69-14.806,5.535-23.4,5.535c-11.7,0-20.88-3.33-27.518-10.035c-6.638-6.683-9.968-16.29-9.968-28.822V38.29
		c0-3.195,0.63-5.558,1.958-7.088c1.305-1.552,3.104-2.34,5.422-2.34h16.381v-10.08h-80.618v10.08H1339.29z"/>
	<path fill="#EEEEEE" d="M1525.478,28.863h14.31c3.465,0,6.008,0.721,7.65,2.16c1.62,1.463,2.43,3.69,2.43,6.728v122.827
		c0,2.813-0.877,4.95-2.654,6.413c-1.777,1.462-4.838,2.16-9.158,2.16h-12.577v10.08h82.147v-10.08h-13.207
		c-3.668,0-6.503-0.788-8.438-2.386c-1.508-1.215-2.273-3.284-2.273-6.188V36.356c0-2.453,0.721-4.32,2.16-5.58
		c1.463-1.261,3.758-1.913,6.931-1.913h14.85v-10.08H1525.5v10.08H1525.478z"/>
	<path fill="#EEEEEE" d="M1631.025,74.537h9.539c2.386-16.627,7.088-28.395,14.131-35.302c7.042-6.908,16.74-10.373,29.07-10.373
		h30.645l-89.46,140.311v10.08h127.013l3.037-60.346h-9.855c-2.385,13.163-5.535,23.266-9.449,30.263
		c-3.915,7.021-8.438,12.105-13.613,15.232c-5.175,3.15-11.295,4.726-18.382,4.726h-40.905l89.843-140.311v-10.08h-117.9
		L1631.025,74.537z"/>
	<path fill="#EEEEEE" d="M49.657,234.287H67.77c6.277,0,10.665,0.878,13.073,2.633c2.407,1.755,3.645,4.5,3.645,8.213v176.399
		c0,4.027-1.215,7.223-3.622,9.63c-2.408,2.386-5.963,3.578-10.598,3.578H49.68v14.399h207.923L261,361.863h-13.928
		c-2.88,24.391-10.327,42.615-22.298,54.72c-11.97,12.105-27.404,18.158-46.282,18.158h-27.607c-6.188,0-10.935-1.125-14.242-3.397
		c-2.16-1.53-3.24-4.186-3.24-7.897v-84.803h8.82c13.725,0,24.007,3.622,30.802,10.867c6.818,7.223,10.688,19.688,11.61,37.373
		h13.928V280.255h-13.928c-1.237,15.593-5.242,26.933-11.992,33.952c-6.75,7.043-16.29,10.53-28.553,10.53h-10.688v-79.515
		c0-3.42,1.08-6.075,3.24-7.965c2.16-1.891,5.67-2.857,10.529-2.857h31.275c12.6,0,22.793,2.069,30.577,6.21
		c7.808,4.117,14.085,10.372,18.9,18.675c4.815,8.325,8.798,21.938,11.992,40.837h13.613L249.053,220H49.657V234.287z"/>
	<path fill="#EEEEEE" d="M458.122,284.62c-16.47,0-29.609,4.612-39.397,13.838c-9.787,9.225-14.692,21.127-14.692,35.752
		c0,8.686,1.777,16.043,5.311,22.072c3.555,6.03,9.09,11.138,16.627,15.277c7.538,4.163,20.16,8.19,37.846,12.105
		c13.117,2.813,21.353,4.883,24.659,6.188c6.075,2.385,10.53,5.513,13.433,9.383c2.903,3.87,4.343,8.662,4.343,14.354
		c0,8.168-3.285,14.985-9.855,20.431c-6.569,5.444-15.771,8.189-27.584,8.189c-28.936,0-48.128-16.965-57.578-50.895h-9.54v59.467
		h8.01l12.668-15.84c13.815,11.655,29.048,17.46,45.742,17.46c18.136,0,33.345-5.332,45.607-15.952
		c10.192-8.82,15.278-20.655,15.278-35.482c0-9.9-2.341-18.315-7.043-25.223s-11.745-12.465-21.173-16.65
		c-5.939-2.609-16.649-5.535-32.175-8.774c-13.275-2.745-22.567-5.378-27.877-7.942c-5.311-2.565-9.158-5.647-11.521-9.248
		c-2.362-3.622-3.577-7.582-3.577-11.925c0-7.29,3.015-13.567,9.045-18.81c6.029-5.243,13.859-7.853,23.467-7.853
		c11.273,0,21.578,3.96,30.893,11.88c9.315,7.92,16.493,19.845,21.578,35.752h9.742l-0.99-55.439h-7.694l-10.058,14.332
		C488.43,290.088,473.94,284.62,458.122,284.62L458.122,284.62z"/>
	<path fill="#EEEEEE" d="M734.513,288.242c-6.615-2.407-13.793-3.622-21.51-3.622c-19.575,0-36.653,6.84-51.255,20.497
		c-17.123,16.043-25.695,37.508-25.695,64.418c0,24.21,7.425,44.077,22.274,59.603c14.851,15.502,33.255,23.265,55.216,23.265
		c16.965,0,31.274-5.332,42.93-15.952c11.633-10.62,18.607-25.088,20.925-43.425h-9.742c-2.678,14.265-7.38,25.042-14.085,32.332
		c-9.315,10.058-20.79,15.098-34.448,15.098c-13.657,0-23.984-5.018-30.982-15.075c-8.729-12.78-13.095-32.377-13.095-58.77
		c0-24.931,3.982-43.178,11.925-54.766c7.942-11.564,18-17.348,30.128-17.348c11.047,0,20.88,4.478,29.475,13.455
		c8.596,8.978,14.445,22.726,17.55,41.221h9.99l-2.723-64.328h-8.01l-7.47,15.953C748.215,294.858,741.128,290.696,734.513,288.242z
		"/>
	<path fill="#EEEEEE" d="M948.15,284.62l-57.466,137.385c-2.317,5.423-5.579,9.878-9.787,13.343
		c-2.97,2.452-6.413,3.689-10.327,3.689h-3.488v10.08h60.908v-10.08h-5.107c-6.008,0-10.755-1.484-14.221-4.409
		c-3.465-2.926-5.22-6.728-5.22-11.453c0-2.745,1.192-6.952,3.601-12.6l5.715-13.545h60.008l12.352,29.745
		c0.878,2.092,1.306,3.96,1.306,5.534c0,2.025-1.035,3.646-3.15,4.883c-2.093,1.237-5.917,1.845-11.475,1.845h-7.021v10.08h75.195
		v-10.08h-5.85c-3.33,0-6.008-0.72-8.011-2.182c-2.024-1.463-3.915-4.186-5.647-8.258L960.367,284.62H948.15L948.15,284.62z
		 M968.31,386.41h-51.097l25.694-61.155L968.31,386.41z"/>
	<path fill="#EEEEEE" d="M1139.107,298.728c3.982,0,6.772,0.652,8.393,2.003c1.62,1.35,2.43,3.487,2.43,6.457v122.715
		c0,2.88-0.787,5.13-2.362,6.728s-3.938,2.385-7.042,2.385h-14.086v10.08h140.985l3.69-61.515h-9.743
		c-3.982,17.933-9.675,30.982-17.122,39.173c-7.447,8.167-15.457,12.262-24.053,12.262h-23.063c-5.625,0-9.202-0.652-10.732-2.002
		c-1.508-1.328-2.272-4.433-2.272-9.271V308.38c0-3.397,0.787-5.85,2.385-7.38c1.575-1.508,4.388-2.295,8.348-2.295h13.883v-10.08
		h-82.26v10.08h12.622V298.728z"/>
	<path fill="#EEEEEE" d="M1363.973,298.728h12.667c4.41,0,7.471,0.607,9.181,1.845c1.688,1.237,2.542,3.15,2.542,5.761v123.479
		c0,2.813-0.854,5.063-2.542,6.728s-4.162,2.497-7.425,2.497h-14.4v10.08h145.553l2.385-61.087h-9.787
		c-2.025,17.077-7.223,29.835-15.593,38.295s-19.17,12.689-32.4,12.689h-19.282c-4.343,0-7.65-0.787-9.968-2.385
		c-1.507-1.08-2.272-2.925-2.272-5.535V371.74h6.188c9.607,0,16.808,2.542,21.578,7.582c4.77,5.063,7.492,13.793,8.122,26.146h9.742
		v-74.633h-9.742c-0.855,10.912-3.668,18.855-8.393,23.76c-4.725,4.928-11.385,7.38-19.979,7.38h-7.471V306.31
		c0-2.385,0.766-4.252,2.296-5.579c1.507-1.351,3.982-2.003,7.38-2.003h21.892c8.798,0,15.953,1.463,21.398,4.343
		c5.444,2.88,9.854,7.245,13.229,13.072c3.353,5.827,6.165,15.345,8.393,28.598h9.54l-3.15-56.093h-139.567v10.08H1363.973
		L1363.973,298.728z"/>
	<path fill="#EEEEEE" d="M1669.77,284.62c-16.47,0-29.609,4.612-39.396,13.838c-9.788,9.225-14.693,21.127-14.693,35.752
		c0,8.686,1.777,16.043,5.311,22.072c3.555,6.03,9.09,11.138,16.627,15.277c7.537,4.163,20.16,8.19,37.846,12.105
		c13.117,2.813,21.352,4.883,24.66,6.188c6.074,2.385,10.529,5.513,13.432,9.383c2.881,3.87,4.343,8.662,4.343,14.354
		c0,8.168-3.285,14.985-9.854,20.431c-6.57,5.444-15.773,8.189-27.586,8.189c-28.935,0-48.127-16.965-57.577-50.895h-9.54v59.467
		h8.01l12.668-15.84c13.814,11.655,29.047,17.46,45.742,17.46c18.135,0,33.346-5.332,45.607-15.952
		c10.193-8.82,15.277-20.655,15.277-35.482c0-9.9-2.34-18.315-7.064-25.223c-4.703-6.907-11.745-12.465-21.173-16.65
		c-5.94-2.609-16.649-5.535-32.175-8.774c-13.275-2.745-22.567-5.378-27.877-7.942c-5.311-2.565-9.158-5.647-11.521-9.248
		c-2.362-3.622-3.577-7.582-3.577-11.925c0-7.29,3.015-13.567,9.045-18.81c6.029-5.243,13.859-7.853,23.467-7.853
		c11.273,0,21.578,3.96,30.893,11.88c9.315,7.92,16.516,19.845,21.578,35.752h9.742l-0.99-55.439h-7.695l-10.057,14.332
		C1700.1,290.088,1685.588,284.62,1669.77,284.62L1669.77,284.62z"/>
</g>
<g>
	<path fill="none" d="M463.896-231.42c-0.521,0-0.95-0.17-1.29-0.51s-0.51-0.771-0.51-1.29v-41.82c0-0.519,0.17-0.95,0.51-1.29
		c0.34-0.339,0.77-0.51,1.29-0.51h5.64c0.52,0,0.95,0.17,1.29,0.511c0.34,0.341,0.511,0.771,0.511,1.292v34.917h15.72
		c0.52,0,0.949,0.17,1.29,0.508c0.339,0.337,0.51,0.765,0.51,1.28v5.124c0,0.517-0.171,0.944-0.51,1.281
		c-0.341,0.338-0.771,0.507-1.29,0.507H463.896z"/>
	<path fill="none" d="M520.594-231.42c-0.32,0-0.659-0.13-1.02-0.39s-0.6-0.55-0.72-0.87l-2.28-7.14h-13.26l-2.221,7.08
		c-0.08,0.32-0.3,0.62-0.659,0.899c-0.36,0.28-0.721,0.42-1.08,0.42h-5.641c-0.64,0-1.14-0.229-1.5-0.69
		c-0.359-0.459-0.44-1.01-0.239-1.649l13.02-41.82c0.08-0.319,0.3-0.609,0.66-0.87c0.359-0.26,0.72-0.39,1.08-0.39h6.479
		c0.36,0,0.721,0.13,1.08,0.39c0.36,0.26,0.579,0.55,0.66,0.87l13.021,41.82c0.199,0.64,0.119,1.19-0.24,1.649
		c-0.36,0.461-0.861,0.69-1.5,0.69H520.594z M509.975-265.92l-5.04,18h9.96L509.975-265.92z"/>
	<path fill="none" d="M583.833-246.479c0.439,0.08,0.819,0.311,1.14,0.689c0.32,0.381,0.44,0.811,0.36,1.29
		c-0.24,2.081-0.82,3.97-1.74,5.67s-2.1,3.171-3.54,4.41c-1.439,1.24-3.1,2.2-4.979,2.88c-1.881,0.68-3.9,1.02-6.061,1.02
		c-2.279,0-4.42-0.43-6.42-1.289s-3.74-2.03-5.22-3.51c-1.48-1.48-2.65-3.22-3.51-5.221c-0.861-2-1.29-4.14-1.29-6.42v-14.34
		c0-2.28,0.429-4.419,1.29-6.42c0.859-2,2.029-3.74,3.51-5.22c1.479-1.479,3.22-2.649,5.22-3.51c2-0.86,4.141-1.29,6.42-1.29
		c2.16,0,4.18,0.34,6.061,1.02c1.88,0.681,3.54,1.641,4.979,2.88c1.44,1.24,2.62,2.721,3.54,4.44c0.92,1.72,1.5,3.621,1.74,5.7
		c0.08,0.48-0.04,0.91-0.36,1.29c-0.32,0.381-0.7,0.61-1.14,0.69l-5.4,0.84c-0.479,0.081-0.93-0.03-1.35-0.33s-0.67-0.69-0.75-1.17
		c-0.16-0.879-0.44-1.729-0.84-2.55c-0.4-0.82-0.91-1.55-1.53-2.19c-0.62-0.639-1.341-1.149-2.16-1.53
		c-0.82-0.38-1.75-0.57-2.79-0.57c-0.96,0-1.87,0.18-2.729,0.54c-0.86,0.36-1.61,0.85-2.25,1.47c-0.641,0.621-1.15,1.35-1.53,2.19
		c-0.381,0.84-0.57,1.761-0.57,2.76v15.899c0,0.961,0.189,1.881,0.57,2.76c0.38,0.881,0.89,1.641,1.53,2.281
		c0.64,0.64,1.39,1.15,2.25,1.529c0.859,0.381,1.77,0.57,2.729,0.57c0.92,0,1.79-0.189,2.61-0.57c0.819-0.379,1.539-0.87,2.16-1.47
		c0.619-0.601,1.14-1.3,1.56-2.101c0.42-0.799,0.69-1.619,0.811-2.459c0.079-0.52,0.319-0.931,0.72-1.23
		c0.399-0.301,0.859-0.41,1.38-0.33L583.833-246.479z"/>
	<path fill="none" d="M594.693-231.42c-0.521,0-0.95-0.17-1.29-0.51s-0.51-0.771-0.51-1.29v-41.82c0-0.519,0.17-0.95,0.51-1.29
		c0.34-0.339,0.77-0.51,1.29-0.51h5.64c0.52,0,0.95,0.17,1.29,0.51c0.34,0.34,0.511,0.771,0.511,1.29v41.82
		c0,0.52-0.171,0.95-0.511,1.29s-0.771,0.51-1.29,0.51H594.693z"/>
	<path fill="none" d="M637.112-231.42c-0.24,0-0.531-0.1-0.87-0.3c-0.341-0.199-0.57-0.399-0.69-0.6l-15.18-26.221v25.32
		c0,0.52-0.171,0.95-0.51,1.29c-0.341,0.34-0.771,0.51-1.29,0.51h-5.641c-0.52,0-0.95-0.17-1.29-0.51s-0.51-0.771-0.51-1.29v-41.82
		c0-0.519,0.17-0.95,0.51-1.29c0.34-0.339,0.771-0.51,1.29-0.51h5.7c0.24,0,0.53,0.1,0.87,0.3c0.34,0.201,0.57,0.4,0.69,0.6
		l14.819,25.621v-24.721c0-0.519,0.17-0.95,0.511-1.29c0.339-0.339,0.77-0.51,1.29-0.51h5.64c0.52,0,0.949,0.17,1.29,0.51
		c0.339,0.34,0.51,0.771,0.51,1.29v41.82c0,0.52-0.171,0.95-0.51,1.29c-0.341,0.34-0.771,0.51-1.29,0.51H637.112z"/>
	<path fill="none" d="M681.992-240.12c0.52,0,0.949,0.171,1.29,0.51c0.339,0.341,0.51,0.771,0.51,1.291v5.1
		c0,0.52-0.171,0.95-0.51,1.29c-0.341,0.34-0.771,0.51-1.29,0.51h-26.94c-0.52,0-0.95-0.17-1.29-0.51s-0.51-0.771-0.51-1.29v-41.82
		c0-0.519,0.17-0.95,0.51-1.29c0.34-0.339,0.771-0.51,1.29-0.51h26.641c0.52,0,0.949,0.17,1.29,0.51
		c0.339,0.34,0.51,0.771,0.51,1.29v5.1c0,0.521-0.171,0.951-0.51,1.29c-0.341,0.34-0.771,0.51-1.29,0.51h-19.2v8.46h11.76
		c0.52,0,0.95,0.17,1.29,0.51c0.34,0.34,0.51,0.771,0.51,1.29v5.1c0,0.521-0.17,0.951-0.51,1.291s-0.771,0.51-1.29,0.51h-11.76
		v10.859H681.992z M669.332-280.56c-0.521,0-0.95-0.169-1.29-0.51c-0.34-0.339-0.51-0.77-0.51-1.29v-3.84
		c0-0.52,0.17-0.95,0.51-1.29c0.34-0.339,0.77-0.51,1.29-0.51h9c0.52,0,0.95,0.171,1.29,0.51c0.34,0.34,0.51,0.771,0.51,1.29v3.84
		c0,0.52-0.17,0.951-0.51,1.29c-0.34,0.34-0.771,0.51-1.29,0.51H669.332z"/>
	<path fill="none" d="M719.912-231.42c-0.521,0-0.951-0.17-1.29-0.51c-0.341-0.34-0.511-0.771-0.511-1.29v-21.84l-7.56,15.54
		c-0.36,0.682-0.881,1.021-1.561,1.021c-0.681,0-1.199-0.339-1.56-1.021l-7.5-15.54v21.84c0,0.52-0.171,0.95-0.51,1.29
		c-0.341,0.34-0.771,0.51-1.29,0.51h-5.641c-0.52,0-0.95-0.17-1.29-0.51s-0.51-0.771-0.51-1.29v-41.82c0-0.519,0.17-0.95,0.51-1.29
		c0.34-0.339,0.771-0.51,1.29-0.51h4.921c0.319,0,0.639,0.11,0.96,0.33c0.319,0.22,0.54,0.471,0.659,0.75l9.96,20.4l10.021-20.46
		c0.12-0.279,0.339-0.52,0.66-0.72c0.319-0.2,0.639-0.3,0.96-0.3h4.92c0.52,0,0.949,0.17,1.29,0.51c0.339,0.34,0.51,0.771,0.51,1.29
		v41.82c0,0.52-0.171,0.95-0.51,1.29c-0.341,0.34-0.771,0.51-1.29,0.51H719.912z"/>
	<path fill="none" d="M761.19-231.42c-0.32,0-0.659-0.13-1.02-0.39s-0.6-0.55-0.72-0.87l-2.28-7.14h-13.26l-2.221,7.08
		c-0.08,0.32-0.3,0.62-0.659,0.899c-0.36,0.28-0.721,0.42-1.08,0.42h-5.641c-0.64,0-1.14-0.229-1.5-0.69
		c-0.359-0.459-0.44-1.01-0.239-1.649l13.02-41.82c0.08-0.319,0.3-0.609,0.66-0.87c0.359-0.26,0.72-0.39,1.08-0.39h6.479
		c0.36,0,0.721,0.13,1.08,0.39c0.36,0.26,0.579,0.55,0.66,0.87l13.021,41.82c0.199,0.64,0.119,1.19-0.24,1.649
		c-0.36,0.461-0.861,0.69-1.5,0.69H761.19z M750.571-265.92l-5.04,18h9.96L750.571-265.92z"/>
	<path fill="none" d="M786.811-268.14v34.92c0,0.52-0.17,0.95-0.51,1.29s-0.771,0.51-1.29,0.51h-5.64c-0.521,0-0.951-0.17-1.29-0.51
		c-0.341-0.34-0.511-0.771-0.511-1.29v-34.92h-9.899c-0.521,0-0.951-0.169-1.29-0.51c-0.341-0.339-0.51-0.77-0.51-1.29v-5.1
		c0-0.519,0.169-0.95,0.51-1.29c0.339-0.339,0.77-0.51,1.29-0.51h29.1c0.52,0,0.95,0.17,1.29,0.51c0.34,0.34,0.51,0.771,0.51,1.29
		v5.1c0,0.521-0.17,0.951-0.51,1.29c-0.34,0.34-0.771,0.51-1.29,0.51H786.811z"/>
	<path fill="none" d="M813.391-233.219c0,0.52-0.171,0.95-0.511,1.29s-0.771,0.51-1.29,0.51h-5.64c-0.521,0-0.95-0.17-1.29-0.51
		s-0.51-0.771-0.51-1.29v-41.82c0-0.519,0.17-0.95,0.51-1.29c0.34-0.339,0.77-0.51,1.29-0.51h5.64c0.52,0,0.95,0.17,1.29,0.51
		c0.34,0.34,0.511,0.771,0.511,1.29v16.02h14.279v-16.02c0-0.519,0.17-0.95,0.51-1.29c0.34-0.339,0.771-0.51,1.29-0.51h5.82
		c0.52,0,0.95,0.17,1.29,0.51c0.34,0.34,0.51,0.771,0.51,1.29v41.82c0,0.52-0.17,0.95-0.51,1.29s-0.771,0.51-1.29,0.51h-5.64
		c-0.521,0-0.951-0.17-1.29-0.51c-0.341-0.34-0.51-0.771-0.51-1.29v-17.1h-14.46V-233.219z"/>
	<path fill="none" d="M874.83-240.12c0.519,0,0.949,0.171,1.289,0.51c0.34,0.341,0.511,0.771,0.511,1.291v5.1
		c0,0.52-0.171,0.95-0.511,1.29s-0.771,0.51-1.289,0.51h-26.94c-0.521,0-0.95-0.17-1.29-0.51s-0.51-0.771-0.51-1.29v-41.82
		c0-0.519,0.17-0.95,0.51-1.29c0.34-0.339,0.77-0.51,1.29-0.51h26.64c0.52,0,0.95,0.17,1.29,0.51c0.34,0.34,0.511,0.771,0.511,1.29
		v5.1c0,0.521-0.171,0.951-0.511,1.29c-0.34,0.34-0.771,0.51-1.29,0.51H855.33v8.46h11.76c0.52,0,0.949,0.17,1.29,0.51
		c0.339,0.34,0.51,0.771,0.51,1.29v5.1c0,0.521-0.171,0.951-0.51,1.291c-0.341,0.34-0.771,0.51-1.29,0.51h-11.76v10.859H874.83z
		 M851.489-280.56c-0.52,0-0.95-0.169-1.29-0.51c-0.34-0.339-0.51-0.77-0.51-1.29v-3.84c0-0.52,0.17-0.95,0.51-1.29
		c0.34-0.339,0.771-0.51,1.29-0.51h9c0.52,0,0.95,0.171,1.29,0.51c0.34,0.34,0.511,0.771,0.511,1.29v3.84
		c0,0.52-0.171,0.951-0.511,1.29c-0.34,0.34-0.771,0.51-1.29,0.51H851.489z"/>
	<path fill="none" d="M914.25-246.96c0,2.28-0.431,4.42-1.291,6.42c-0.859,2.001-2.039,3.74-3.539,5.221
		c-1.5,1.479-3.25,2.65-5.25,3.51c-2.001,0.859-4.14,1.289-6.42,1.289s-4.421-0.43-6.42-1.289c-2.001-0.859-3.741-2.03-5.221-3.51
		c-1.479-1.48-2.649-3.22-3.51-5.221c-0.86-2-1.29-4.14-1.29-6.42v-14.34c0-2.28,0.43-4.419,1.29-6.42c0.86-2,2.03-3.74,3.51-5.22
		c1.479-1.479,3.22-2.649,5.221-3.51c1.999-0.86,4.14-1.29,6.42-1.29s4.419,0.43,6.42,1.29c2,0.86,3.75,2.03,5.25,3.51
		c1.5,1.48,2.68,3.22,3.539,5.22c0.86,2,1.291,4.14,1.291,6.42V-246.96z M905.01-261.24c0-1-0.201-1.93-0.6-2.79
		c-0.4-0.86-0.931-1.62-1.59-2.28c-0.66-0.66-1.432-1.179-2.311-1.56c-0.88-0.379-1.8-0.57-2.76-0.57s-1.881,0.19-2.76,0.57
		c-0.881,0.381-1.65,0.891-2.311,1.53c-0.66,0.64-1.18,1.4-1.56,2.28c-0.381,0.88-0.57,1.8-0.57,2.76v14.34
		c0,0.96,0.189,1.881,0.57,2.76c0.38,0.881,0.899,1.641,1.56,2.28s1.43,1.15,2.311,1.53c0.879,0.381,1.8,0.57,2.76,0.57
		s1.88-0.189,2.76-0.57c0.879-0.38,1.65-0.891,2.311-1.53c0.659-0.64,1.189-1.399,1.59-2.28c0.398-0.879,0.6-1.8,0.6-2.76V-261.24z
		 M893.25-220.26c-0.521,0-0.951-0.171-1.29-0.511c-0.341-0.34-0.51-0.77-0.51-1.289v-3.84c0-0.521,0.169-0.951,0.51-1.291
		c0.339-0.34,0.77-0.51,1.29-0.51h9c0.52,0,0.949,0.17,1.289,0.51s0.511,0.77,0.511,1.291v3.84c0,0.52-0.171,0.949-0.511,1.289
		s-0.77,0.511-1.289,0.511H893.25z"/>
	<path fill="none" d="M954.568-247.02c0,2.281-0.43,4.421-1.289,6.42c-0.861,2.002-2.041,3.75-3.541,5.25s-3.25,2.682-5.25,3.541
		s-4.139,1.289-6.42,1.289c-2.279,0-4.42-0.43-6.42-1.289s-3.74-2.041-5.219-3.541c-1.48-1.5-2.65-3.248-3.511-5.25
		c-0.86-1.999-1.29-4.139-1.29-6.42v-28.08c0-0.519,0.17-0.95,0.51-1.29c0.34-0.339,0.77-0.51,1.291-0.51h5.639
		c0.52,0,0.95,0.17,1.291,0.51c0.339,0.34,0.51,0.771,0.51,1.29v28.621c0,1,0.189,1.94,0.57,2.819c0.379,0.88,0.899,1.65,1.56,2.31
		c0.66,0.66,1.419,1.182,2.28,1.561c0.859,0.381,1.789,0.57,2.789,0.57s1.94-0.189,2.82-0.57c0.88-0.379,1.65-0.9,2.311-1.561
		c0.66-0.659,1.18-1.43,1.56-2.31c0.38-0.879,0.57-1.819,0.57-2.819V-275.1c0-0.519,0.169-0.95,0.51-1.29
		c0.339-0.339,0.771-0.51,1.29-0.51h5.641c0.52,0,0.949,0.17,1.289,0.51c0.34,0.34,0.51,0.771,0.51,1.29V-247.02z"/>
	<path fill="none" d="M991.709-240.12c0.518,0,0.949,0.171,1.289,0.51c0.34,0.341,0.51,0.771,0.51,1.291v5.1
		c0,0.52-0.17,0.95-0.51,1.29s-0.771,0.51-1.289,0.51h-26.941c-0.52,0-0.949-0.17-1.289-0.51s-0.51-0.771-0.51-1.29v-41.82
		c0-0.519,0.17-0.95,0.51-1.29c0.34-0.339,0.77-0.51,1.289-0.51h26.641c0.52,0,0.949,0.17,1.289,0.51
		c0.34,0.34,0.512,0.771,0.512,1.29v5.1c0,0.521-0.172,0.951-0.512,1.29c-0.34,0.34-0.77,0.51-1.289,0.51h-19.199v8.46h11.76
		c0.52,0,0.949,0.17,1.289,0.51c0.34,0.34,0.51,0.771,0.51,1.29v5.1c0,0.521-0.17,0.951-0.51,1.291s-0.77,0.51-1.289,0.51h-11.76
		v10.859H991.709z"/>
	<path fill="none" d="M1030.047-268.14v8.46h11.76c0.52,0,0.951,0.17,1.291,0.51c0.34,0.34,0.51,0.771,0.51,1.29v5.1
		c0,0.521-0.17,0.951-0.51,1.291s-0.771,0.51-1.291,0.51h-11.76v17.76c0,0.52-0.17,0.95-0.51,1.29s-0.77,0.51-1.289,0.51h-5.641
		c-0.52,0-0.951-0.17-1.291-0.51s-0.51-0.771-0.51-1.29v-41.82c0-0.519,0.17-0.95,0.51-1.29c0.34-0.339,0.771-0.51,1.291-0.51
		h26.939c0.52,0,0.949,0.17,1.291,0.51c0.338,0.34,0.51,0.771,0.51,1.29v5.1c0,0.521-0.16,0.951-0.48,1.29
		c-0.32,0.34-0.74,0.51-1.26,0.51H1030.047z"/>
	<path fill="none" d="M1082.727-231.42c-0.32,0-0.65-0.13-0.99-0.39s-0.57-0.55-0.689-0.87l-5.1-14.94h-8.76v14.4
		c0,0.52-0.172,0.95-0.512,1.29s-0.77,0.51-1.289,0.51h-5.641c-0.52,0-0.949-0.17-1.289-0.51s-0.51-0.771-0.51-1.29v-41.82
		c0-0.519,0.17-0.95,0.51-1.29c0.34-0.339,0.77-0.51,1.289-0.51h16.621c2,0,3.879,0.38,5.639,1.14c1.76,0.76,3.301,1.8,4.621,3.12
		c1.32,1.32,2.369,2.86,3.15,4.62c0.779,1.761,1.17,3.64,1.17,5.64c0,2.28-0.57,4.47-1.711,6.57s-2.65,3.891-4.529,5.37l5.639,16.62
		c0.201,0.64,0.141,1.19-0.18,1.649c-0.32,0.461-0.82,0.69-1.5,0.69H1082.727z M1082.066-262.199c0-0.8-0.16-1.54-0.48-2.22
		c-0.32-0.68-0.74-1.27-1.26-1.77c-0.52-0.5-1.119-0.9-1.799-1.2c-0.682-0.3-1.402-0.45-2.16-0.45h-9.18v11.16h9.18
		c0.799,0,1.539-0.14,2.219-0.42c0.68-0.279,1.281-0.669,1.801-1.17c0.52-0.5,0.93-1.089,1.23-1.77
		C1081.916-260.719,1082.066-261.439,1082.066-262.199z"/>
	<path fill="none" d="M1122.986-231.42c-0.32,0-0.66-0.13-1.02-0.39s-0.6-0.55-0.721-0.87l-2.279-7.14h-13.26l-2.221,7.08
		c-0.08,0.32-0.299,0.62-0.66,0.899c-0.359,0.28-0.719,0.42-1.08,0.42h-5.639c-0.641,0-1.141-0.229-1.5-0.69
		c-0.361-0.459-0.441-1.01-0.24-1.649l13.02-41.82c0.08-0.319,0.301-0.609,0.66-0.87c0.359-0.26,0.721-0.39,1.08-0.39h6.48
		c0.359,0,0.719,0.13,1.08,0.39c0.359,0.26,0.578,0.55,0.66,0.87l13.02,41.82c0.199,0.64,0.119,1.19-0.24,1.649
		c-0.359,0.461-0.861,0.69-1.5,0.69H1122.986z M1112.367-265.92l-5.041,18h9.961L1112.367-265.92z"/>
	<path fill="none" d="M1161.566-231.42c-0.24,0-0.531-0.1-0.871-0.3c-0.34-0.199-0.568-0.399-0.689-0.6l-15.18-26.221v25.32
		c0,0.52-0.17,0.95-0.51,1.29s-0.771,0.51-1.291,0.51h-5.639c-0.521,0-0.951-0.17-1.291-0.51s-0.51-0.771-0.51-1.29v-41.82
		c0-0.519,0.17-0.95,0.51-1.29c0.34-0.339,0.77-0.51,1.291-0.51h5.699c0.24,0,0.529,0.1,0.871,0.3c0.338,0.201,0.568,0.4,0.689,0.6
		l14.82,25.621v-24.721c0-0.519,0.17-0.95,0.51-1.29c0.34-0.339,0.77-0.51,1.289-0.51h5.641c0.52,0,0.949,0.17,1.289,0.51
		c0.34,0.34,0.512,0.771,0.512,1.29v41.82c0,0.52-0.172,0.95-0.512,1.29s-0.77,0.51-1.289,0.51H1161.566z"/>
	<path fill="none" d="M1207.945-246.479c0.439,0.08,0.82,0.311,1.141,0.689c0.32,0.381,0.439,0.811,0.359,1.29
		c-0.24,2.081-0.82,3.97-1.74,5.67s-2.1,3.171-3.539,4.41c-1.439,1.24-3.1,2.2-4.98,2.88s-3.9,1.02-6.061,1.02
		c-2.279,0-4.42-0.43-6.42-1.289s-3.74-2.03-5.219-3.51c-1.48-1.48-2.65-3.22-3.51-5.221c-0.861-2-1.291-4.14-1.291-6.42v-14.34
		c0-2.28,0.43-4.419,1.291-6.42c0.859-2,2.029-3.74,3.51-5.22c1.479-1.479,3.219-2.649,5.219-3.51c2-0.86,4.141-1.29,6.42-1.29
		c2.16,0,4.18,0.34,6.061,1.02c1.881,0.681,3.541,1.641,4.98,2.88c1.439,1.24,2.619,2.721,3.539,4.44c0.92,1.72,1.5,3.621,1.74,5.7
		c0.08,0.48-0.039,0.91-0.359,1.29c-0.32,0.381-0.701,0.61-1.141,0.69l-5.4,0.84c-0.479,0.081-0.93-0.03-1.35-0.33
		s-0.67-0.69-0.75-1.17c-0.16-0.879-0.439-1.729-0.84-2.55c-0.4-0.82-0.91-1.55-1.529-2.19c-0.621-0.639-1.342-1.149-2.16-1.53
		c-0.82-0.38-1.75-0.57-2.791-0.57c-0.959,0-1.869,0.18-2.729,0.54c-0.861,0.36-1.611,0.85-2.25,1.47
		c-0.641,0.621-1.15,1.35-1.531,2.19c-0.381,0.84-0.57,1.761-0.57,2.76v15.899c0,0.961,0.189,1.881,0.57,2.76
		c0.381,0.881,0.891,1.641,1.531,2.281c0.639,0.64,1.389,1.15,2.25,1.529c0.859,0.381,1.77,0.57,2.729,0.57
		c0.92,0,1.791-0.189,2.611-0.57c0.818-0.379,1.539-0.87,2.16-1.47c0.619-0.601,1.139-1.3,1.559-2.101
		c0.42-0.799,0.691-1.619,0.811-2.459c0.08-0.52,0.32-0.931,0.721-1.23c0.398-0.301,0.859-0.41,1.379-0.33L1207.945-246.479z
		 M1188.625-220.26c-0.52,0-0.949-0.171-1.289-0.511s-0.51-0.77-0.51-1.289v-3.84c0-0.521,0.17-0.951,0.51-1.291
		s0.77-0.51,1.289-0.51h9c0.52,0,0.951,0.17,1.291,0.51s0.51,0.77,0.51,1.291v3.84c0,0.52-0.17,0.949-0.51,1.289
		s-0.771,0.511-1.291,0.511H1188.625z"/>
	<path fill="none" d="M1241.246-231.42c-0.32,0-0.66-0.13-1.02-0.39c-0.361-0.26-0.6-0.55-0.721-0.87l-2.279-7.14h-13.26
		l-2.221,7.08c-0.08,0.32-0.301,0.62-0.66,0.899c-0.359,0.28-0.721,0.42-1.08,0.42h-5.641c-0.639,0-1.139-0.229-1.5-0.69
		c-0.359-0.459-0.439-1.01-0.238-1.649l13.02-41.82c0.08-0.319,0.299-0.609,0.66-0.87c0.359-0.26,0.719-0.39,1.08-0.39h6.479
		c0.361,0,0.721,0.13,1.08,0.39c0.361,0.26,0.58,0.55,0.66,0.87l13.021,41.82c0.199,0.64,0.119,1.19-0.24,1.649
		c-0.361,0.461-0.861,0.69-1.5,0.69H1241.246z M1230.627-265.92l-5.041,18h9.961L1230.627-265.92z"/>
	<path fill="none" d="M1255.646-231.42c-0.521,0-0.951-0.17-1.291-0.51s-0.51-0.771-0.51-1.29v-41.82c0-0.519,0.17-0.95,0.51-1.29
		c0.34-0.339,0.77-0.51,1.291-0.51h5.639c0.52,0,0.951,0.17,1.291,0.51c0.34,0.34,0.51,0.771,0.51,1.29v41.82
		c0,0.52-0.17,0.95-0.51,1.29s-0.771,0.51-1.291,0.51H1255.646z"/>
	<path fill="none" d="M1301.064-244.8c0,2-0.359,3.87-1.08,5.609c-0.721,1.74-1.76,3.251-3.119,4.53c-1.361,1.28-3.021,2.28-4.98,3
		c-1.961,0.72-4.18,1.08-6.66,1.08c-2.32,0-4.381-0.312-6.18-0.937c-1.801-0.624-3.352-1.48-4.65-2.568
		c-1.301-1.087-2.361-2.374-3.18-3.863c-0.82-1.487-1.41-3.072-1.77-4.752c-0.121-0.52-0.041-0.99,0.238-1.41s0.68-0.669,1.201-0.75
		c0.68-0.119,1.379-0.24,2.1-0.359c0.6-0.08,1.221-0.16,1.859-0.24c0.641-0.08,1.221-0.159,1.74-0.24
		c0.52-0.08,0.971,0.041,1.35,0.36c0.381,0.32,0.609,0.741,0.691,1.26c0.039,0.601,0.189,1.19,0.449,1.771s0.65,1.09,1.17,1.529
		c0.52,0.441,1.17,0.801,1.951,1.08c0.779,0.281,1.709,0.42,2.789,0.42c1.24,0,2.289-0.148,3.15-0.449
		c0.859-0.299,1.561-0.699,2.1-1.197c0.541-0.499,0.939-1.078,1.199-1.737s0.391-1.329,0.391-2.007c0-1.518-0.43-2.766-1.289-3.744
		c-0.861-0.979-2.051-1.688-3.57-2.127l-6.541-1.918c-1.4-0.438-2.68-1.058-3.84-1.856s-2.16-1.757-3-2.875
		c-0.84-1.117-1.49-2.346-1.949-3.684c-0.461-1.338-0.689-2.746-0.689-4.224c0-1.637,0.309-3.225,0.93-4.763
		c0.619-1.537,1.529-2.884,2.729-4.043c1.201-1.158,2.66-2.086,4.381-2.785c1.719-0.699,3.68-1.049,5.881-1.049
		c2.16,0,4.039,0.33,5.639,0.99s2.941,1.5,4.021,2.52c1.078,1.02,1.928,2.16,2.549,3.42c0.619,1.26,1.051,2.49,1.291,3.69
		c0.078,0.521-0.031,0.981-0.33,1.38c-0.301,0.4-0.711,0.64-1.23,0.72l-5.52,0.84c-0.441,0.081-0.852-0.02-1.23-0.3
		c-0.381-0.279-0.631-0.639-0.75-1.08c-0.041-0.12-0.07-0.249-0.09-0.39c-0.021-0.14-0.051-0.27-0.09-0.39
		c-0.16-0.6-0.551-1.23-1.17-1.89c-0.621-0.66-1.65-0.99-3.09-0.99c-1.521,0-2.74,0.38-3.66,1.14c-0.922,0.76-1.381,1.761-1.381,3
		c0,0.72,0.109,1.32,0.33,1.8c0.219,0.48,0.51,0.88,0.871,1.2c0.359,0.321,0.758,0.581,1.199,0.78c0.439,0.201,0.879,0.36,1.32,0.48
		l5.16,1.56c1.279,0.4,2.539,0.86,3.779,1.38c1.24,0.521,2.359,1.161,3.359,1.92c0.439,0.36,0.961,0.831,1.561,1.41
		c0.6,0.58,1.17,1.311,1.711,2.189c0.539,0.881,0.998,1.941,1.379,3.181C1300.875-247.939,1301.064-246.479,1301.064-244.8z"/>
	<path fill="none" d="M1336.105-240.12c0.52,0,0.949,0.171,1.289,0.51c0.34,0.341,0.51,0.771,0.51,1.291v5.1
		c0,0.52-0.17,0.95-0.51,1.29s-0.77,0.51-1.289,0.51h-26.941c-0.52,0-0.949-0.17-1.289-0.51s-0.51-0.771-0.51-1.29v-41.82
		c0-0.519,0.17-0.95,0.51-1.29c0.34-0.339,0.77-0.51,1.289-0.51h26.641c0.52,0,0.949,0.17,1.291,0.51
		c0.338,0.34,0.51,0.771,0.51,1.29v5.1c0,0.521-0.172,0.951-0.51,1.29c-0.342,0.34-0.771,0.51-1.291,0.51h-19.199v8.46h11.76
		c0.52,0,0.949,0.17,1.289,0.51c0.34,0.34,0.51,0.771,0.51,1.29v5.1c0,0.521-0.17,0.951-0.51,1.291s-0.77,0.51-1.289,0.51h-11.76
		v10.859H1336.105z"/>
</g>
</svg>
