<?xml version="1.0" encoding="UTF-8"?>
<svg xmlns="http://www.w3.org/2000/svg" viewBox="0 0 800 235">
  <g style="fill: #eee;">
    <path d="M20 12.29h8.67c1.79 0 3.16 0.49 4.13 1.48 0.96 0.99 1.44 2.54 1.44 4.65v76.82c0 1.93-0.53 3.44-1.59 4.51 -1.05 1.08-2.61 1.62-4.67 1.62H20v6.41h51.54v-6.4h-9.22c-1.83 0-3.44-0.57-4.82-1.72 -0.96-0.87-1.44-2.14-1.44-3.79V58.31h7.51c3.16 0 5.82 0.71 7.98 2.14 2.16 1.43 3.91 3.61 5.26 6.55 1.35 2.95 2.88 8.68 4.58 17.22 1.46 7.31 2.61 11.94 3.44 13.92 1.38 3.45 3.38 6.06 6.02 7.86 2.64 1.8 6.14 2.69 10.49 2.69 6.1 0 10.83-1.84 14.17-5.55 3.34-3.69 5.25-9.81 5.71-18.36h-6.05c-0.6 8.04-2.4 12.06-5.43 12.06 -1.1 0-2.09-0.57-2.95-1.72 -0.87-1.15-1.88-3.95-3.03-8.41 -1.84-6.93-4.21-12.88-7.11-17.84 -2.19-3.77-4.73-6.62-7.59-8.53 -2.86-1.91-6.95-3.31-12.26-4.18 10.59-1.05 18.44-3.35 23.53-6.89 6.7-4.64 10.04-10.7 10.04-18.17 0-4.68-1.33-8.94-3.99-12.77 -2.66-3.83-6.71-6.86-12.14-9.09C88.79 6.99 81.74 5.88 73.11 5.88H20V12.29zM56.05 20.07c0-3.26 0.55-5.36 1.65-6.3 1.1-0.94 3.81-1.42 8.12-1.42 8.03 0 13.67 1.5 16.93 4.51 3.26 3.01 4.88 7.77 4.88 14.3 0 7.08-1.65 12.1-4.95 15.09 -4.41 3.9-10.41 5.85-18.03 5.85h-8.6V20.07H56.05z"/>
    <path d="M161.24 34.66l-25.54 61.06c-1.03 2.41-2.48 4.39-4.35 5.94 -1.32 1.09-2.85 1.64-4.59 1.64h-1.55v4.48h27.07v-4.48h-2.27c-2.67 0-4.78-0.65-6.32-1.96 -1.54-1.3-2.32-2.99-2.32-5.09 0-1.23 0.53-3.09 1.6-5.6l2.54-6.02h26.67l5.49 13.22c0.39 0.93 0.58 1.76 0.58 2.46 0 0.9-0.46 1.63-1.4 2.17 -0.93 0.55-2.63 0.82-5.1 0.82h-3.12v4.48h33.42v-4.48h-2.6c-1.47 0-2.67-0.32-3.56-0.96 -0.9-0.65-1.74-1.86-2.51-3.67l-26.72-64H161.24zM170.2 79.9H147.48l11.42-27.18L170.2 79.9z"/>
    <path d="M216.48 45.22c-6.91 7.04-10.35 15.97-10.35 26.8 0 7.3 1.58 13.7 4.72 19.21 3.15 5.51 7.44 9.89 12.88 13.13 5.44 3.25 11.6 4.86 18.47 4.86 10.34 0 19-3.56 25.98-10.7 6.98-7.13 10.48-16.05 10.48-26.74 0-7.04-1.58-13.36-4.74-18.96 -3.16-5.6-7.58-10.03-13.24-13.28 -5.67-3.24-11.86-4.86-18.56-4.86C231.93 34.66 223.39 38.18 216.48 45.22zM252.55 42.44c2.93 2.11 5.12 5.3 6.6 9.6 1.47 4.29 2.21 10.71 2.21 19.26 0 12.21-1.72 20.78-5.15 25.71 -3.44 4.93-8.03 7.4-13.77 7.4 -3.88 0-7.29-1.06-10.21-3.18 -2.93-2.12-5.15-5.39-6.67-9.8 -1.53-4.42-2.29-10.92-2.29-19.49 0-8.16 0.83-14.58 2.48-19.27 1.65-4.69 3.89-8.08 6.7-10.19 2.81-2.1 6.13-3.15 9.95-3.15C246.24 39.29 249.63 40.34 252.55 42.44z"/>
    <path d="M286.55 40.93h5.25c1.83 0 3.1 0.34 3.81 1.04 0.7 0.69 1.06 1.97 1.06 3.84v40.08c0 5.21 0.95 9.4 2.87 12.56 1.91 3.16 5.14 5.76 9.68 7.76 4.54 2.01 9.88 3.01 16.02 3.01 8.57 0 15.31-2.23 20.23-6.71 4.88-4.44 7.32-10.31 7.32-17.6V52.07c0-3.15 0.74-5.79 2.21-7.93 1.47-2.14 3.63-3.21 6.45-3.21h1.88v-4.48h-27.16v4.48h1.06c2.89 0 5.2 0.96 6.92 2.9 1.72 1.93 2.58 4.83 2.58 8.68v30.29c0 4.25-0.73 7.76-2.19 10.56 -1.46 2.79-3.33 4.81-5.61 6.03 -3.12 1.64-6.58 2.46-10.4 2.46 -5.21 0-9.28-1.48-12.24-4.46 -2.95-2.97-4.43-7.24-4.43-12.81V45.12c0-1.42 0.28-2.47 0.87-3.15 0.58-0.69 1.38-1.04 2.41-1.04h7.28v-4.48H286.58v4.48H286.55z"/>
    <path d="M375.41 40.93c1.77 0 3.01 0.3 3.73 0.89 0.72 0.6 1.08 1.55 1.08 2.87v54.54c0 1.28-0.35 2.28-1.05 2.99 -0.7 0.71-1.75 1.06-3.13 1.06h-6.26v4.48h62.66l1.63-27.34h-4.33c-1.77 7.97-4.3 13.78-7.61 17.41 -3.31 3.64-6.87 5.45-10.69 5.45h-10.26c-2.51 0-4.09-0.29-4.77-0.89 -0.67-0.59-1.01-1.97-1.01-4.12V45.24c0-1.51 0.35-2.6 1.06-3.28 0.7-0.67 1.94-1.02 3.71-1.02h6.17v-4.48H369.79v4.48h5.62V40.93z"/>
    <path d="M485.7 12.29h8.67c1.79 0 3.16 0.49 4.13 1.48 0.96 0.99 1.44 2.54 1.44 4.65v76.82c0 1.93-0.53 3.44-1.59 4.51 -1.05 1.08-2.61 1.62-4.68 1.62h-7.98v6.41h51.54v-6.4h-9.22c-1.83 0-3.44-0.57-4.82-1.72 -0.96-0.87-1.44-2.14-1.44-3.79V58.31h7.5c3.16 0 5.82 0.71 7.98 2.14 2.16 1.43 3.91 3.61 5.26 6.55 1.35 2.95 2.88 8.68 4.58 17.22 1.47 7.31 2.61 11.94 3.44 13.92 1.38 3.45 3.38 6.06 6.02 7.86 2.64 1.8 6.14 2.69 10.5 2.69 6.1 0 10.83-1.84 14.17-5.55 3.34-3.69 5.25-9.81 5.71-18.36h-6.05c-0.6 8.04-2.4 12.06-5.43 12.06 -1.1 0-2.09-0.57-2.95-1.72 -0.87-1.15-1.88-3.95-3.03-8.41 -1.84-6.93-4.21-12.88-7.11-17.84 -2.19-3.77-4.73-6.62-7.59-8.53 -2.87-1.91-6.95-3.31-12.27-4.18 10.59-1.05 18.44-3.35 23.53-6.89 6.7-4.64 10.04-10.7 10.04-18.17 0-4.68-1.33-8.94-3.99-12.77 -2.66-3.83-6.71-6.86-12.14-9.09 -5.43-2.23-12.49-3.34-21.11-3.34h-53.11v6.41H485.7zM521.75 20.07c0-3.26 0.55-5.36 1.65-6.3 1.1-0.94 3.81-1.42 8.12-1.42 8.03 0 13.67 1.5 16.93 4.51 3.26 3.01 4.88 7.77 4.88 14.3 0 7.08-1.65 12.1-4.95 15.09 -4.4 3.9-10.41 5.85-18.03 5.85h-8.6V20.07H521.75z"/>
    <path d="M595.24 40.93h5.25c1.83 0 3.1 0.34 3.81 1.04 0.7 0.69 1.06 1.97 1.06 3.84v40.08c0 5.21 0.96 9.4 2.87 12.56s5.14 5.76 9.68 7.76c4.54 2.01 9.88 3.01 16.02 3.01 8.57 0 15.31-2.23 20.23-6.71 4.88-4.44 7.32-10.31 7.32-17.6V52.07c0-3.15 0.74-5.79 2.21-7.93 1.48-2.14 3.63-3.21 6.45-3.21h1.88v-4.48h-27.16v4.48h1.06c2.89 0 5.2 0.96 6.92 2.9 1.72 1.93 2.57 4.83 2.57 8.68v30.29c0 4.25-0.73 7.76-2.19 10.56 -1.46 2.79-3.33 4.81-5.61 6.03 -3.12 1.64-6.58 2.46-10.4 2.46 -5.2 0-9.28-1.48-12.23-4.46 -2.95-2.97-4.43-7.24-4.43-12.81V45.12c0-1.42 0.28-2.47 0.87-3.15 0.58-0.69 1.38-1.04 2.41-1.04h7.28v-4.48h-35.83v4.48H595.24z"/>
    <path d="M677.99 40.93h6.36c1.54 0 2.67 0.32 3.4 0.96 0.72 0.65 1.08 1.64 1.08 2.99V99.47c0 1.25-0.39 2.2-1.18 2.85 -0.79 0.65-2.15 0.96-4.07 0.96h-5.59v4.48h36.51v-4.48h-5.87c-1.63 0-2.89-0.35-3.75-1.06 -0.67-0.54-1.01-1.46-1.01-2.75V44.26c0-1.09 0.32-1.92 0.96-2.48 0.65-0.56 1.67-0.85 3.08-0.85h6.6v-4.48h-36.51v4.48H677.99z"/>
    <path d="M724.9 61.23h4.24c1.06-7.39 3.15-12.62 6.28-15.69 3.13-3.07 7.44-4.61 12.92-4.61h13.62l-39.76 62.36v4.48h56.45L780 80.95h-4.38c-1.06 5.85-2.46 10.34-4.2 13.45 -1.74 3.12-3.75 5.38-6.05 6.77 -2.3 1.4-5.02 2.1-8.17 2.1h-18.18l39.93-62.36v-4.48h-52.4L724.9 61.23z"/>
    <path d="M22.07 132.23h8.05c2.79 0 4.74 0.39 5.81 1.17 1.07 0.78 1.62 2 1.62 3.65v78.4c0 1.79-0.54 3.21-1.61 4.28 -1.07 1.06-2.65 1.59-4.71 1.59h-9.15v6.4h92.41l1.51-38.79h-6.19c-1.28 10.84-4.59 18.94-9.91 24.32 -5.32 5.38-12.18 8.07-20.57 8.07H67.06c-2.75 0-4.86-0.5-6.33-1.51 -0.96-0.68-1.44-1.86-1.44-3.51v-37.69h3.92c6.1 0 10.67 1.61 13.69 4.83 3.03 3.21 4.75 8.75 5.16 16.61h6.19v-47.39h-6.19c-0.55 6.93-2.33 11.97-5.33 15.09 -3 3.13-7.24 4.68-12.69 4.68h-4.75v-35.34c0-1.52 0.48-2.7 1.44-3.54 0.96-0.84 2.52-1.27 4.68-1.27h13.9c5.6 0 10.13 0.92 13.59 2.76 3.47 1.83 6.26 4.61 8.4 8.3 2.14 3.7 3.91 9.75 5.33 18.15h6.05l-1.99-35.61H22.07V132.23z"/>
    <path d="M203.61 154.6c-7.32 0-13.16 2.05-17.51 6.15 -4.35 4.1-6.53 9.39-6.53 15.89 0 3.86 0.79 7.13 2.36 9.81 1.58 2.68 4.04 4.95 7.39 6.79 3.35 1.85 8.96 3.64 16.82 5.38 5.83 1.25 9.49 2.17 10.96 2.75 2.7 1.06 4.68 2.45 5.97 4.17s1.93 3.85 1.93 6.38c0 3.63-1.46 6.66-4.38 9.08 -2.92 2.42-7.01 3.64-12.26 3.64 -12.86 0-21.39-7.54-25.59-22.62h-4.24v26.43h3.56l5.63-7.04c6.14 5.18 12.91 7.76 20.33 7.76 8.06 0 14.82-2.37 20.27-7.09 4.53-3.92 6.79-9.18 6.79-15.77 0-4.4-1.04-8.14-3.13-11.21 -2.09-3.07-5.22-5.54-9.41-7.4 -2.64-1.16-7.4-2.46-14.3-3.9 -5.9-1.22-10.03-2.39-12.39-3.53 -2.36-1.14-4.07-2.51-5.12-4.11 -1.05-1.61-1.59-3.37-1.59-5.3 0-3.24 1.34-6.03 4.02-8.36 2.68-2.33 6.16-3.49 10.43-3.49 5.01 0 9.59 1.76 13.73 5.28 4.14 3.52 7.33 8.82 9.59 15.89h4.33l-0.44-24.64h-3.42l-4.47 6.37C217.08 157.03 210.64 154.6 203.61 154.6L203.61 154.6z"/>
    <path d="M326.45 156.21c-2.94-1.07-6.13-1.61-9.56-1.61 -8.7 0-16.29 3.04-22.78 9.11 -7.61 7.13-11.42 16.67-11.42 28.63 0 10.76 3.3 19.59 9.9 26.49 6.6 6.89 14.78 10.34 24.54 10.34 7.54 0 13.9-2.37 19.08-7.09 5.17-4.72 8.27-11.15 9.3-19.3h-4.33c-1.19 6.34-3.28 11.13-6.26 14.37 -4.14 4.47-9.24 6.71-15.31 6.71 -6.07 0-10.66-2.23-13.77-6.7 -3.88-5.68-5.82-14.39-5.82-26.12 0-11.08 1.77-19.19 5.3-24.34 3.53-5.14 8-7.71 13.39-7.71 4.91 0 9.28 1.99 13.1 5.98 3.82 3.99 6.42 10.1 7.8 18.32h4.44l-1.21-28.59h-3.56l-3.32 7.09C332.54 159.15 329.39 157.3 326.45 156.21z"/>
    <path d="M421.4 154.6l-25.54 61.06c-1.03 2.41-2.48 4.39-4.35 5.93 -1.32 1.09-2.85 1.64-4.59 1.64h-1.55v4.48h27.07v-4.48h-2.27c-2.67 0-4.78-0.66-6.32-1.96 -1.54-1.3-2.32-2.99-2.32-5.09 0-1.22 0.53-3.09 1.6-5.6l2.54-6.02h26.67l5.49 13.22c0.39 0.93 0.58 1.76 0.58 2.46 0 0.9-0.46 1.62-1.4 2.17 -0.93 0.55-2.63 0.82-5.1 0.82h-3.12v4.48h33.42v-4.48h-2.6c-1.48 0-2.67-0.32-3.56-0.97 -0.9-0.65-1.74-1.86-2.51-3.67l-26.71-63.99H421.4zM430.36 199.84h-22.71l11.42-27.18L430.36 199.84z"/>
    <path d="M506.27 160.87c1.77 0 3.01 0.29 3.73 0.89 0.72 0.6 1.08 1.55 1.08 2.87v54.54c0 1.28-0.35 2.28-1.05 2.99 -0.7 0.71-1.75 1.06-3.13 1.06h-6.26v4.48h62.66l1.64-27.34h-4.33c-1.77 7.97-4.3 13.77-7.61 17.41 -3.31 3.63-6.87 5.45-10.69 5.45H532.06c-2.5 0-4.09-0.29-4.77-0.89 -0.67-0.59-1.01-1.97-1.01-4.12v-53.05c0-1.51 0.35-2.6 1.06-3.28 0.7-0.67 1.95-1.02 3.71-1.02h6.17v-4.48h-36.56v4.48h5.61V160.87z"/>
    <path d="M606.21 160.87h5.63c1.96 0 3.32 0.27 4.08 0.82 0.75 0.55 1.13 1.4 1.13 2.56v54.88c0 1.25-0.38 2.25-1.13 2.99 -0.75 0.74-1.85 1.11-3.3 1.11h-6.4v4.48h64.69l1.06-27.15h-4.35c-0.9 7.59-3.21 13.26-6.93 17.02 -3.72 3.76-8.52 5.64-14.4 5.64h-8.57c-1.93 0-3.4-0.35-4.43-1.06 -0.67-0.48-1.01-1.3-1.01-2.46v-26.38h2.75c4.27 0 7.47 1.13 9.59 3.37 2.12 2.25 3.33 6.13 3.61 11.62h4.33v-33.17h-4.33c-0.38 4.85-1.63 8.38-3.73 10.56 -2.1 2.19-5.06 3.28-8.88 3.28h-3.32V164.24c0-1.06 0.34-1.89 1.02-2.48 0.67-0.6 1.77-0.89 3.28-0.89h9.73c3.91 0 7.09 0.65 9.51 1.93 2.42 1.28 4.38 3.22 5.88 5.81 1.49 2.59 2.74 6.82 3.73 12.71h4.24l-1.4-24.93h-62.03v4.48H606.21z"/>
    <path d="M742.12 154.6c-7.32 0-13.16 2.05-17.51 6.15 -4.35 4.1-6.53 9.39-6.53 15.89 0 3.86 0.79 7.13 2.36 9.81 1.58 2.68 4.04 4.95 7.39 6.79 3.35 1.85 8.96 3.64 16.82 5.38 5.83 1.25 9.49 2.17 10.96 2.75 2.7 1.06 4.68 2.45 5.97 4.17 1.28 1.72 1.93 3.85 1.93 6.38 0 3.63-1.46 6.66-4.38 9.08 -2.92 2.42-7.01 3.64-12.26 3.64 -12.86 0-21.39-7.54-25.59-22.62h-4.24v26.43h3.56l5.63-7.04c6.14 5.18 12.91 7.76 20.33 7.76 8.06 0 14.82-2.37 20.27-7.09 4.53-3.92 6.79-9.18 6.79-15.77 0-4.4-1.04-8.14-3.14-11.21 -2.09-3.07-5.22-5.54-9.41-7.4 -2.64-1.16-7.4-2.46-14.3-3.9 -5.9-1.22-10.03-2.39-12.39-3.53 -2.36-1.14-4.07-2.51-5.12-4.11 -1.05-1.61-1.59-3.37-1.59-5.3 0-3.24 1.34-6.03 4.02-8.36 2.68-2.33 6.16-3.49 10.43-3.49 5.01 0 9.59 1.76 13.73 5.28 4.14 3.52 7.34 8.82 9.59 15.89h4.33l-0.44-24.64h-3.42l-4.47 6.37C755.6 157.03 749.15 154.6 742.12 154.6L742.12 154.6z"/>
  </g>
</svg>
